# xmcd
#
# Track frame offsets:
#  182
#  17270
#  31722
#  46607
#  63687
#  76395
#  90817
#  103880
#  122660
#  135237
#
# Disc length: 2022 seconds
#
# Revision: 0
# Processed by: cddbd v1.5.1PL2 Copyright (c) Steve Scherf et al.
# Submitted via: Collectorz.com_Music_Collector 6.11
#
DISCID=6707e40a
DTITLE=Pierrette Beauchamp - Rose libre
DYEAR=1900
DGENRE=Québécois
TTITLE0=Nelle terre
TTITLE1=Mon père
TTITLE2=Je pense à toi
TTITLE3=Cucurrucucu
TTITLE4=Tu te reconnaîtras
TTITLE5=Je n'ai pas oublié
TTITLE6=A Blue Bayou
TTITLE7=Avec toi chaque jour
TTITLE8=Sous mon grand chapeau
TTITLE9=Jamais (La Paloma)
EXTD=
EXTT0=
EXTT1=
EXTT2=
EXTT3=
EXTT4=
EXTT5=
EXTT6=
EXTT7=
EXTT8=
EXTT9=
PLAYORDER=
